# xmcd
#
# Track frame offsets: 
#        150
#        16722
#        29434
#        41964
#        65244
#        77244
#        97269
#        112685
#        139931
#        150353
#        166300
#        179470
#        192716
#        205395
#        228336
#        244858
#        260083
#        283083
#
# Disc length: 4025 seconds
#
# Revision: 4
# Processed by: cddbd v1.5.2PL0 Copyright (c) Steve Scherf et al.
# Submitted via: ExactAudioCopyFreeDBPlugin 1.0
#
DISCID=0a0fb712
DTITLE=Various Artist - Simplement piano: Satie, Glass, Nyman, Einaud
DTITLE=i, Allevi
DYEAR=2008
DGENRE=Piano
TTITLE0=Erik Satie - Première Gymnopédie
TTITLE1=Michael Nyman - The heart asks pleasure first
TTITLE2=Erik Satie - Deuxième Gymnopédie
TTITLE3=Philip Glass - Glassworks - Opening
TTITLE4=Erik Satie - Troisième Gymnopédie
TTITLE5=Ludovico Einaudi - Le Onde
TTITLE6=Erik Satie - Première Gnossienne
TTITLE7=Giovanni Allevi - Come sei veramente
TTITLE8=Erik Satie - Deuxième Gnossienne
TTITLE9=Philip Glass - The Poet Acts
TTITLE10=Erik Satie - Troisième Gnossienne
TTITLE11=Michael Nyman - Big my secret
TTITLE12=Erik Satie - Quatrième Gnossienne
TTITLE13=Philip Glass - The Morning Passages
TTITLE14=Ludovico Einaudi - Inizio
TTITLE15=Erik Satie - Cinquième Gnossienne
TTITLE16=Giovanni Allevi - Notte ad Harlem
TTITLE17=Ludovico Einaudi - Samba
EXTD=
EXTT0=
EXTT1=
EXTT2=
EXTT3=
EXTT4=
EXTT5=
EXTT6=
EXTT7=
EXTT8=
EXTT9=
EXTT10=
EXTT11=
EXTT12=
EXTT13=
EXTT14=
EXTT15=
EXTT16=
EXTT17=
PLAYORDER=
